<mxfile host="app.diagrams.net" modified="2022-11-23T15:32:06.691Z" agent="5.0 (Windows)" version="20.6.0" etag="WvYLIdSrZmzg38ABv_oX" type="github">
  <diagram id="BXRtGHbMrKm54WQv6c_G" name="Page-1">
    <mxGraphModel dx="1153" dy="639" grid="1" gridSize="10" guides="1" tooltips="1" connect="1" arrows="1" fold="1" page="1" pageScale="1" pageWidth="827" pageHeight="1169" math="0" shadow="0">
      <root>
        <mxCell id="0" />
        <mxCell id="1" parent="0" />
        <mxCell id="t7ZpOgtnZrypAFFjjD7j-1" value="&lt;div&gt;Admin&lt;/div&gt;" style="shape=umlActor;verticalLabelPosition=bottom;verticalAlign=top;html=1;outlineConnect=0;" vertex="1" parent="1">
          <mxGeometry x="300" y="610" width="30" height="60" as="geometry" />
        </mxCell>
        <mxCell id="t7ZpOgtnZrypAFFjjD7j-8" value="" style="edgeStyle=orthogonalEdgeStyle;rounded=0;orthogonalLoop=1;jettySize=auto;html=1;fontSize=20;" edge="1" parent="1" source="t7ZpOgtnZrypAFFjjD7j-5" target="t7ZpOgtnZrypAFFjjD7j-7">
          <mxGeometry relative="1" as="geometry" />
        </mxCell>
        <mxCell id="t7ZpOgtnZrypAFFjjD7j-11" value="Includ" style="edgeLabel;html=1;align=center;verticalAlign=middle;resizable=0;points=[];fontSize=20;" vertex="1" connectable="0" parent="t7ZpOgtnZrypAFFjjD7j-8">
          <mxGeometry x="-0.2" y="-2" relative="1" as="geometry">
            <mxPoint as="offset" />
          </mxGeometry>
        </mxCell>
        <mxCell id="t7ZpOgtnZrypAFFjjD7j-5" value="&lt;div align=&quot;justify&quot;&gt;&lt;font style=&quot;font-size: 20px;&quot;&gt;Connexion&lt;/font&gt;&lt;/div&gt;" style="rounded=1;whiteSpace=wrap;html=1;fontSize=20;" vertex="1" parent="1">
          <mxGeometry x="100" y="490" width="120" height="60" as="geometry" />
        </mxCell>
        <mxCell id="t7ZpOgtnZrypAFFjjD7j-7" value="&lt;div align=&quot;justify&quot;&gt;Authentification&lt;/div&gt;" style="rounded=1;whiteSpace=wrap;html=1;fontSize=20;" vertex="1" parent="1">
          <mxGeometry x="60" y="330" width="200" height="60" as="geometry" />
        </mxCell>
        <mxCell id="t7ZpOgtnZrypAFFjjD7j-9" value="" style="endArrow=classic;html=1;rounded=0;fontSize=20;exitX=0.5;exitY=0.5;exitDx=0;exitDy=0;exitPerimeter=0;" edge="1" parent="1" source="t7ZpOgtnZrypAFFjjD7j-1" target="t7ZpOgtnZrypAFFjjD7j-5">
          <mxGeometry relative="1" as="geometry">
            <mxPoint x="-40" y="550" as="sourcePoint" />
            <mxPoint x="60" y="550" as="targetPoint" />
          </mxGeometry>
        </mxCell>
        <mxCell id="t7ZpOgtnZrypAFFjjD7j-10" value="Includ" style="edgeLabel;resizable=0;html=1;align=center;verticalAlign=middle;fontSize=20;" connectable="0" vertex="1" parent="t7ZpOgtnZrypAFFjjD7j-9">
          <mxGeometry relative="1" as="geometry" />
        </mxCell>
        <mxCell id="t7ZpOgtnZrypAFFjjD7j-14" value="&lt;div align=&quot;justify&quot;&gt;&lt;font style=&quot;font-size: 20px;&quot;&gt;Connexion&lt;/font&gt;&lt;/div&gt;" style="rounded=1;whiteSpace=wrap;html=1;fontSize=20;" vertex="1" parent="1">
          <mxGeometry x="100" y="730" width="120" height="60" as="geometry" />
        </mxCell>
        <mxCell id="t7ZpOgtnZrypAFFjjD7j-15" value="" style="endArrow=classic;html=1;rounded=0;fontSize=20;" edge="1" parent="1" target="t7ZpOgtnZrypAFFjjD7j-14" source="t7ZpOgtnZrypAFFjjD7j-1">
          <mxGeometry relative="1" as="geometry">
            <mxPoint x="315" y="890" as="sourcePoint" />
            <mxPoint x="60" y="800" as="targetPoint" />
          </mxGeometry>
        </mxCell>
        <mxCell id="t7ZpOgtnZrypAFFjjD7j-17" value="Tableau de bord" style="swimlane;" vertex="1" parent="1">
          <mxGeometry x="450" y="50" width="730" height="1470" as="geometry">
            <mxRectangle x="190" y="220" width="90" height="30" as="alternateBounds" />
          </mxGeometry>
        </mxCell>
        <mxCell id="t7ZpOgtnZrypAFFjjD7j-18" value="Infos" style="swimlane;startSize=23;" vertex="1" parent="t7ZpOgtnZrypAFFjjD7j-17">
          <mxGeometry x="50" y="50" width="620" height="140" as="geometry" />
        </mxCell>
        <mxCell id="t7ZpOgtnZrypAFFjjD7j-32" value="&lt;div align=&quot;center&quot;&gt;Voir les flux RSS&lt;br&gt;&lt;/div&gt;" style="rounded=1;whiteSpace=wrap;html=1;fontSize=20;" vertex="1" parent="t7ZpOgtnZrypAFFjjD7j-18">
          <mxGeometry x="190" y="50" width="240" height="60" as="geometry" />
        </mxCell>
        <mxCell id="t7ZpOgtnZrypAFFjjD7j-21" value="Tickets" style="swimlane;" vertex="1" parent="t7ZpOgtnZrypAFFjjD7j-17">
          <mxGeometry x="50" y="220" width="620" height="130" as="geometry" />
        </mxCell>
        <mxCell id="t7ZpOgtnZrypAFFjjD7j-34" value="Éditer les tickets" style="rounded=1;whiteSpace=wrap;html=1;fontSize=20;" vertex="1" parent="t7ZpOgtnZrypAFFjjD7j-21">
          <mxGeometry x="190" y="45" width="240" height="60" as="geometry" />
        </mxCell>
        <mxCell id="t7ZpOgtnZrypAFFjjD7j-24" value="BDD" style="swimlane;" vertex="1" parent="t7ZpOgtnZrypAFFjjD7j-17">
          <mxGeometry x="50" y="380" width="620" height="280" as="geometry" />
        </mxCell>
        <mxCell id="t7ZpOgtnZrypAFFjjD7j-35" value="Éditer la BDD" style="rounded=1;whiteSpace=wrap;html=1;fontSize=20;" vertex="1" parent="t7ZpOgtnZrypAFFjjD7j-24">
          <mxGeometry x="190" y="50" width="240" height="60" as="geometry" />
        </mxCell>
        <mxCell id="t7ZpOgtnZrypAFFjjD7j-36" value="Etudiants" style="rounded=1;whiteSpace=wrap;html=1;fontSize=20;" vertex="1" parent="t7ZpOgtnZrypAFFjjD7j-24">
          <mxGeometry x="90" y="170" width="120" height="60" as="geometry" />
        </mxCell>
        <mxCell id="t7ZpOgtnZrypAFFjjD7j-37" value="Professeurs" style="rounded=1;whiteSpace=wrap;html=1;fontSize=20;" vertex="1" parent="t7ZpOgtnZrypAFFjjD7j-24">
          <mxGeometry x="250" y="170" width="120" height="60" as="geometry" />
        </mxCell>
        <mxCell id="t7ZpOgtnZrypAFFjjD7j-38" value="Classes" style="rounded=1;whiteSpace=wrap;html=1;fontSize=20;" vertex="1" parent="t7ZpOgtnZrypAFFjjD7j-24">
          <mxGeometry x="410" y="170" width="120" height="60" as="geometry" />
        </mxCell>
        <mxCell id="t7ZpOgtnZrypAFFjjD7j-57" value="" style="endArrow=classic;html=1;rounded=0;fontSize=20;" edge="1" parent="t7ZpOgtnZrypAFFjjD7j-24" source="t7ZpOgtnZrypAFFjjD7j-35" target="t7ZpOgtnZrypAFFjjD7j-36">
          <mxGeometry width="50" height="50" relative="1" as="geometry">
            <mxPoint x="60" y="390" as="sourcePoint" />
            <mxPoint x="110" y="340" as="targetPoint" />
          </mxGeometry>
        </mxCell>
        <mxCell id="t7ZpOgtnZrypAFFjjD7j-59" value="" style="endArrow=classic;html=1;rounded=0;fontSize=20;" edge="1" parent="t7ZpOgtnZrypAFFjjD7j-24" source="t7ZpOgtnZrypAFFjjD7j-35" target="t7ZpOgtnZrypAFFjjD7j-38">
          <mxGeometry width="50" height="50" relative="1" as="geometry">
            <mxPoint x="290" y="130" as="sourcePoint" />
            <mxPoint x="210" y="190" as="targetPoint" />
          </mxGeometry>
        </mxCell>
        <mxCell id="t7ZpOgtnZrypAFFjjD7j-58" value="" style="endArrow=classic;html=1;rounded=0;fontSize=20;" edge="1" parent="t7ZpOgtnZrypAFFjjD7j-24" source="t7ZpOgtnZrypAFFjjD7j-35" target="t7ZpOgtnZrypAFFjjD7j-37">
          <mxGeometry width="50" height="50" relative="1" as="geometry">
            <mxPoint x="280" y="120" as="sourcePoint" />
            <mxPoint x="200" y="180" as="targetPoint" />
          </mxGeometry>
        </mxCell>
        <mxCell id="t7ZpOgtnZrypAFFjjD7j-29" value="Messagerie" style="swimlane;startSize=23;" vertex="1" parent="t7ZpOgtnZrypAFFjjD7j-17">
          <mxGeometry x="50" y="690" width="620" height="740" as="geometry" />
        </mxCell>
        <mxCell id="t7ZpOgtnZrypAFFjjD7j-39" value="Modérer tout les messages" style="rounded=1;whiteSpace=wrap;html=1;fontSize=20;" vertex="1" parent="t7ZpOgtnZrypAFFjjD7j-29">
          <mxGeometry x="180" y="60" width="240" height="60" as="geometry" />
        </mxCell>
        <mxCell id="t7ZpOgtnZrypAFFjjD7j-40" value="Lire les messages" style="rounded=1;whiteSpace=wrap;html=1;fontSize=20;" vertex="1" parent="t7ZpOgtnZrypAFFjjD7j-29">
          <mxGeometry x="180" y="160" width="240" height="60" as="geometry" />
        </mxCell>
        <mxCell id="t7ZpOgtnZrypAFFjjD7j-41" value="Envoyer des messages" style="rounded=1;whiteSpace=wrap;html=1;fontSize=20;" vertex="1" parent="t7ZpOgtnZrypAFFjjD7j-29">
          <mxGeometry x="180" y="260" width="240" height="60" as="geometry" />
        </mxCell>
        <mxCell id="t7ZpOgtnZrypAFFjjD7j-43" value="A une personne" style="rounded=1;whiteSpace=wrap;html=1;fontSize=20;" vertex="1" parent="t7ZpOgtnZrypAFFjjD7j-29">
          <mxGeometry x="30" y="420" width="120" height="60" as="geometry" />
        </mxCell>
        <mxCell id="t7ZpOgtnZrypAFFjjD7j-44" value="A plusieurs personnes" style="rounded=1;whiteSpace=wrap;html=1;fontSize=20;" vertex="1" parent="t7ZpOgtnZrypAFFjjD7j-29">
          <mxGeometry x="60" y="500" width="120" height="60" as="geometry" />
        </mxCell>
        <mxCell id="t7ZpOgtnZrypAFFjjD7j-45" value="A une&amp;nbsp; classe" style="rounded=1;whiteSpace=wrap;html=1;fontSize=20;" vertex="1" parent="t7ZpOgtnZrypAFFjjD7j-29">
          <mxGeometry x="470" y="420" width="120" height="60" as="geometry" />
        </mxCell>
        <mxCell id="t7ZpOgtnZrypAFFjjD7j-46" value="A plusieurs classes" style="rounded=1;whiteSpace=wrap;html=1;fontSize=20;" vertex="1" parent="t7ZpOgtnZrypAFFjjD7j-29">
          <mxGeometry x="440" y="500" width="120" height="60" as="geometry" />
        </mxCell>
        <mxCell id="t7ZpOgtnZrypAFFjjD7j-47" value="A tout les eleves" style="rounded=1;whiteSpace=wrap;html=1;fontSize=20;" vertex="1" parent="t7ZpOgtnZrypAFFjjD7j-29">
          <mxGeometry x="380" y="580" width="120" height="60" as="geometry" />
        </mxCell>
        <mxCell id="t7ZpOgtnZrypAFFjjD7j-48" value="A toute l&#39;ecole" style="rounded=1;whiteSpace=wrap;html=1;fontSize=20;" vertex="1" parent="t7ZpOgtnZrypAFFjjD7j-29">
          <mxGeometry x="240" y="620" width="120" height="60" as="geometry" />
        </mxCell>
        <mxCell id="t7ZpOgtnZrypAFFjjD7j-49" value="A tout les profs" style="rounded=1;whiteSpace=wrap;html=1;fontSize=20;" vertex="1" parent="t7ZpOgtnZrypAFFjjD7j-29">
          <mxGeometry x="100" y="580" width="120" height="60" as="geometry" />
        </mxCell>
        <mxCell id="t7ZpOgtnZrypAFFjjD7j-60" value="" style="endArrow=classic;html=1;rounded=0;fontSize=20;" edge="1" parent="t7ZpOgtnZrypAFFjjD7j-29" source="t7ZpOgtnZrypAFFjjD7j-41" target="t7ZpOgtnZrypAFFjjD7j-43">
          <mxGeometry width="50" height="50" relative="1" as="geometry">
            <mxPoint x="60" y="580" as="sourcePoint" />
            <mxPoint x="110" y="530" as="targetPoint" />
          </mxGeometry>
        </mxCell>
        <mxCell id="t7ZpOgtnZrypAFFjjD7j-61" value="&lt;div&gt;Extend&lt;/div&gt;" style="edgeLabel;html=1;align=center;verticalAlign=middle;resizable=0;points=[];fontSize=20;" vertex="1" connectable="0" parent="t7ZpOgtnZrypAFFjjD7j-60">
          <mxGeometry x="-0.1552" relative="1" as="geometry">
            <mxPoint as="offset" />
          </mxGeometry>
        </mxCell>
        <mxCell id="t7ZpOgtnZrypAFFjjD7j-72" value="" style="endArrow=classic;html=1;rounded=0;fontSize=20;" edge="1" parent="t7ZpOgtnZrypAFFjjD7j-29" source="t7ZpOgtnZrypAFFjjD7j-41" target="t7ZpOgtnZrypAFFjjD7j-45">
          <mxGeometry width="50" height="50" relative="1" as="geometry">
            <mxPoint x="320.625" y="380" as="sourcePoint" />
            <mxPoint x="189.375" y="480" as="targetPoint" />
          </mxGeometry>
        </mxCell>
        <mxCell id="t7ZpOgtnZrypAFFjjD7j-73" value="&lt;div&gt;Extend&lt;/div&gt;" style="edgeLabel;html=1;align=center;verticalAlign=middle;resizable=0;points=[];fontSize=20;" vertex="1" connectable="0" parent="t7ZpOgtnZrypAFFjjD7j-72">
          <mxGeometry x="-0.1552" relative="1" as="geometry">
            <mxPoint as="offset" />
          </mxGeometry>
        </mxCell>
        <mxCell id="t7ZpOgtnZrypAFFjjD7j-70" value="" style="endArrow=classic;html=1;rounded=0;fontSize=20;" edge="1" parent="t7ZpOgtnZrypAFFjjD7j-29" source="t7ZpOgtnZrypAFFjjD7j-41" target="t7ZpOgtnZrypAFFjjD7j-46">
          <mxGeometry width="50" height="50" relative="1" as="geometry">
            <mxPoint x="310.625" y="370" as="sourcePoint" />
            <mxPoint x="179.375" y="470" as="targetPoint" />
          </mxGeometry>
        </mxCell>
        <mxCell id="t7ZpOgtnZrypAFFjjD7j-71" value="&lt;div&gt;Extend&lt;/div&gt;" style="edgeLabel;html=1;align=center;verticalAlign=middle;resizable=0;points=[];fontSize=20;" vertex="1" connectable="0" parent="t7ZpOgtnZrypAFFjjD7j-70">
          <mxGeometry x="-0.1552" relative="1" as="geometry">
            <mxPoint as="offset" />
          </mxGeometry>
        </mxCell>
        <mxCell id="t7ZpOgtnZrypAFFjjD7j-68" value="" style="endArrow=classic;html=1;rounded=0;fontSize=20;" edge="1" parent="t7ZpOgtnZrypAFFjjD7j-29" target="t7ZpOgtnZrypAFFjjD7j-47">
          <mxGeometry width="50" height="50" relative="1" as="geometry">
            <mxPoint x="310" y="320" as="sourcePoint" />
            <mxPoint x="169.375" y="460" as="targetPoint" />
          </mxGeometry>
        </mxCell>
        <mxCell id="t7ZpOgtnZrypAFFjjD7j-69" value="&lt;div&gt;Extend&lt;/div&gt;" style="edgeLabel;html=1;align=center;verticalAlign=middle;resizable=0;points=[];fontSize=20;" vertex="1" connectable="0" parent="t7ZpOgtnZrypAFFjjD7j-68">
          <mxGeometry x="-0.1552" relative="1" as="geometry">
            <mxPoint as="offset" />
          </mxGeometry>
        </mxCell>
        <mxCell id="t7ZpOgtnZrypAFFjjD7j-66" value="" style="endArrow=classic;html=1;rounded=0;fontSize=20;" edge="1" parent="t7ZpOgtnZrypAFFjjD7j-29" source="t7ZpOgtnZrypAFFjjD7j-41" target="t7ZpOgtnZrypAFFjjD7j-48">
          <mxGeometry width="50" height="50" relative="1" as="geometry">
            <mxPoint x="290.625" y="350" as="sourcePoint" />
            <mxPoint x="159.375" y="450" as="targetPoint" />
          </mxGeometry>
        </mxCell>
        <mxCell id="t7ZpOgtnZrypAFFjjD7j-67" value="&lt;div&gt;Extend&lt;/div&gt;" style="edgeLabel;html=1;align=center;verticalAlign=middle;resizable=0;points=[];fontSize=20;" vertex="1" connectable="0" parent="t7ZpOgtnZrypAFFjjD7j-66">
          <mxGeometry x="-0.1552" relative="1" as="geometry">
            <mxPoint as="offset" />
          </mxGeometry>
        </mxCell>
        <mxCell id="t7ZpOgtnZrypAFFjjD7j-64" value="" style="endArrow=classic;html=1;rounded=0;fontSize=20;" edge="1" parent="t7ZpOgtnZrypAFFjjD7j-29" source="t7ZpOgtnZrypAFFjjD7j-41" target="t7ZpOgtnZrypAFFjjD7j-49">
          <mxGeometry width="50" height="50" relative="1" as="geometry">
            <mxPoint x="280.625" y="340" as="sourcePoint" />
            <mxPoint x="149.375" y="440" as="targetPoint" />
          </mxGeometry>
        </mxCell>
        <mxCell id="t7ZpOgtnZrypAFFjjD7j-65" value="&lt;div&gt;Extend&lt;/div&gt;" style="edgeLabel;html=1;align=center;verticalAlign=middle;resizable=0;points=[];fontSize=20;" vertex="1" connectable="0" parent="t7ZpOgtnZrypAFFjjD7j-64">
          <mxGeometry x="-0.1552" relative="1" as="geometry">
            <mxPoint as="offset" />
          </mxGeometry>
        </mxCell>
        <mxCell id="t7ZpOgtnZrypAFFjjD7j-62" value="" style="endArrow=classic;html=1;rounded=0;fontSize=20;" edge="1" parent="t7ZpOgtnZrypAFFjjD7j-29" source="t7ZpOgtnZrypAFFjjD7j-41" target="t7ZpOgtnZrypAFFjjD7j-44">
          <mxGeometry width="50" height="50" relative="1" as="geometry">
            <mxPoint x="270.625" y="330" as="sourcePoint" />
            <mxPoint x="139.375" y="430" as="targetPoint" />
          </mxGeometry>
        </mxCell>
        <mxCell id="t7ZpOgtnZrypAFFjjD7j-63" value="&lt;div&gt;Extend&lt;/div&gt;" style="edgeLabel;html=1;align=center;verticalAlign=middle;resizable=0;points=[];fontSize=20;" vertex="1" connectable="0" parent="t7ZpOgtnZrypAFFjjD7j-62">
          <mxGeometry x="-0.1552" relative="1" as="geometry">
            <mxPoint as="offset" />
          </mxGeometry>
        </mxCell>
        <mxCell id="t7ZpOgtnZrypAFFjjD7j-51" value="" style="endArrow=classic;html=1;rounded=0;fontSize=20;entryX=0.079;entryY=0.983;entryDx=0;entryDy=0;entryPerimeter=0;" edge="1" parent="1" source="t7ZpOgtnZrypAFFjjD7j-1" target="t7ZpOgtnZrypAFFjjD7j-32">
          <mxGeometry width="50" height="50" relative="1" as="geometry">
            <mxPoint x="580" y="460" as="sourcePoint" />
            <mxPoint x="630" y="410" as="targetPoint" />
          </mxGeometry>
        </mxCell>
        <mxCell id="t7ZpOgtnZrypAFFjjD7j-52" value="" style="endArrow=classic;html=1;rounded=0;fontSize=20;" edge="1" parent="1" source="t7ZpOgtnZrypAFFjjD7j-1" target="t7ZpOgtnZrypAFFjjD7j-34">
          <mxGeometry width="50" height="50" relative="1" as="geometry">
            <mxPoint x="340" y="633.5889430399025" as="sourcePoint" />
            <mxPoint x="718.96" y="218.98000000000002" as="targetPoint" />
          </mxGeometry>
        </mxCell>
        <mxCell id="t7ZpOgtnZrypAFFjjD7j-53" value="" style="endArrow=classic;html=1;rounded=0;fontSize=20;" edge="1" parent="1" target="t7ZpOgtnZrypAFFjjD7j-35">
          <mxGeometry width="50" height="50" relative="1" as="geometry">
            <mxPoint x="320" y="640" as="sourcePoint" />
            <mxPoint x="728.96" y="228.98000000000002" as="targetPoint" />
          </mxGeometry>
        </mxCell>
        <mxCell id="t7ZpOgtnZrypAFFjjD7j-54" value="" style="endArrow=classic;html=1;rounded=0;fontSize=20;" edge="1" parent="1" source="t7ZpOgtnZrypAFFjjD7j-1" target="t7ZpOgtnZrypAFFjjD7j-39">
          <mxGeometry width="50" height="50" relative="1" as="geometry">
            <mxPoint x="360" y="653.5889430399025" as="sourcePoint" />
            <mxPoint x="738.96" y="238.98000000000002" as="targetPoint" />
          </mxGeometry>
        </mxCell>
        <mxCell id="t7ZpOgtnZrypAFFjjD7j-55" value="" style="endArrow=classic;html=1;rounded=0;fontSize=20;" edge="1" parent="1" source="t7ZpOgtnZrypAFFjjD7j-1" target="t7ZpOgtnZrypAFFjjD7j-40">
          <mxGeometry width="50" height="50" relative="1" as="geometry">
            <mxPoint x="370" y="663.5889430399025" as="sourcePoint" />
            <mxPoint x="710" y="970" as="targetPoint" />
          </mxGeometry>
        </mxCell>
        <mxCell id="t7ZpOgtnZrypAFFjjD7j-56" value="" style="endArrow=classic;html=1;rounded=0;fontSize=20;" edge="1" parent="1" source="t7ZpOgtnZrypAFFjjD7j-1" target="t7ZpOgtnZrypAFFjjD7j-41">
          <mxGeometry width="50" height="50" relative="1" as="geometry">
            <mxPoint x="380" y="673.5889430399025" as="sourcePoint" />
            <mxPoint x="710" y="1070" as="targetPoint" />
          </mxGeometry>
        </mxCell>
      </root>
    </mxGraphModel>
  </diagram>
</mxfile>
